<svg xmlns="http://www.w3.org/2000/svg" width="23.679" height="23.679" viewBox="0 0 23.679 23.679" fill="#333741"><defs><style>.a{fill:none;}</style></defs><path class="a" d="M0,0H23.679V23.679H0Z"/><path d="M11.866,6.933a.99.99,0,0,0-.987.987v2.96H7.92a.987.987,0,0,0,0,1.973h2.96v2.96a.987.987,0,1,0,1.973,0v-2.96h2.96a.987.987,0,1,0,0-1.973h-2.96V7.92A.99.99,0,0,0,11.866,6.933Zm0-4.933a9.866,9.866,0,1,0,9.866,9.866A9.87,9.87,0,0,0,11.866,2Zm0,17.759a7.893,7.893,0,1,1,7.893-7.893A7.9,7.9,0,0,1,11.866,19.759Z" transform="translate(-0.027 -0.027)"/></svg>